# xmcd
#
# Track frame offsets:
#	150
#	30768
#	69706
#	98413
#	120587
#	148303
#	177935
#	220611
#	280048
#	312588
#
# Disc length: 4658 seconds
#
# Revision: 0
# Processed by: cddbd v1.5.2PL0 Copyright (c) Steve Scherf et al.
# Submitted via: audiograbber 1.83.01
#
DISCID=8812300a
DTITLE=Grateful Dead - 94-10-05 The Spectrum, Philadelphia PA
DYEAR=1900
DGENRE=
TTITLE0=Jack Straw
TTITLE1=Friend Of the Devil
TTITLE2=Wang Dang Doodle
TTITLE3=Jack-A-Roe
TTITLE4=Queen Jane Approximately
TTITLE5=Lazy River Road
TTITLE6=Eternity
TTITLE7=Deal
TTITLE8=In The Midnight Hour
TTITLE9=Cumberland Blues
EXTD=
EXTT0=
EXTT1=
EXTT2=
EXTT3=
EXTT4=
EXTT5=
EXTT6=
EXTT7=
EXTT8=
EXTT9=
PLAYORDER=
